<?xml version="1.0" encoding="UTF-8"?>
<svg width="752pt" height="752pt" version="1.1" viewBox="0 0 752 752" xmlns="http://www.w3.org/2000/svg">
 <path d="m571.27 402.99h-5.0117v-106.36c0-14.676-11.91-26.586-26.586-26.59v-87.656c0-15.875-14.836-21.824-26.59-18.691l-326.25 100.38c-17.965 5.5234-19.398 14.848-19.398 32.559v265.88c0 14.676 11.91 26.59 26.586 26.59l345.65 0.007812c14.676-0.003906 26.586-11.91 26.586-26.59v-79.766h5.0117c7.3398 0 13.293-5.9453 13.293-13.293v-53.18c0-7.3359-5.957-13.293-13.293-13.293zm-64.867-206.92c4.0391-1.2188 6.6758 0.46875 6.6758 4.7773v69.199h-251.7zm33.27 353.16c0 7.3555-5.957 13.293-13.293 13.293l-319.07-0.003906c-7.3359 0-13.293-5.9375-13.293-13.293v-238.48c0-10.598 1.7773-14.109 13.844-14.109h318.52c7.3359 0 13.293 5.9453 13.293 13.293v93.059h-66.473c-7.3359 0-13.293 5.957-13.293 13.293v53.18c0 7.3516 5.9531 13.293 13.293 13.293h66.473zm18.305-93.062h-71.484v-26.586h71.48z"/>
</svg>
